<svg width="93" height="79" viewBox="0 0 93 79" fill="none" xmlns="http://www.w3.org/2000/svg">
<g clip-path="url(#clip0_198_86)">
<path d="M81.7001 49.1621C81.7001 65.6718 65.9428 79.0617 46.4964 79.0617C45.4429 79.0617 44.3966 79.0216 43.3685 78.9398C43.3658 78.942 43.3622 78.9432 43.3585 78.9432C43.3548 78.9432 43.3512 78.942 43.3485 78.9398C35.1554 78.3247 27.4778 75.2819 21.6588 70.344L21.608 70.3054C18.3361 67.5319 15.7411 64.2368 13.9722 60.6093C12.2033 56.9818 11.2951 53.0932 11.2999 49.1667C11.2999 45.172 15.4158 42.1447 21.6534 40.0848C24.4004 39.1987 27.2341 38.5203 30.1215 38.0573C31.7998 37.7703 33.5436 37.5327 35.3309 37.3445C37.6154 39.0232 40.3855 40.1539 43.3558 40.6202H43.3703C45.6655 40.9817 48.0233 40.9408 50.2992 40.5C52.575 40.0593 54.7208 39.2281 56.6047 38.0573C56.968 37.8305 57.3203 37.5944 57.6582 37.3445C70.8398 38.7378 81.7001 42.677 81.7001 49.1621Z" fill="#2C0648"/>
<path d="M63.6487 22.9363C63.6506 23.4947 63.613 24.0527 63.5361 24.6073C63.5016 24.8711 63.458 25.135 63.398 25.3927C62.701 22.0145 60.6237 18.9534 57.5315 16.7481C54.4393 14.5429 50.5306 13.3347 46.4931 13.3364C42.4557 13.3381 38.5483 14.5494 35.4586 16.7572C32.369 18.965 30.2951 22.0278 29.602 25.4066C29.5402 25.1427 29.4966 24.8789 29.4621 24.6073C29.3836 24.0528 29.3436 23.4948 29.3422 22.9363C29.3887 19.0978 31.2164 15.4299 34.4282 12.7295C37.64 10.0291 41.9765 8.5144 46.4955 8.5144C51.0144 8.5144 55.3509 10.0291 58.5627 12.7295C61.7745 15.4299 63.6022 19.0978 63.6487 22.9363Z" fill="#2C0648"/>
<path d="M63.3926 25.3926C63.2636 26.0794 63.0705 26.7563 62.815 27.417C62.6333 27.8923 62.4263 28.3551 62.1938 28.8057C62.1066 28.9816 62.003 29.1575 61.9086 29.3257C61.8141 29.4939 61.6924 29.6852 61.5798 29.8688C61.3564 30.2206 61.113 30.5647 60.8532 30.9026C60.2045 31.7431 59.4552 32.5244 58.6173 33.234C57.0262 34.5884 55.1364 35.6628 53.0559 36.396C50.9754 37.1291 48.7451 37.5065 46.4927 37.5065C44.2403 37.5065 42.0101 37.1291 39.9296 36.396C37.8491 35.6628 35.9592 34.5884 34.3682 33.234C34.0304 32.9486 33.7125 32.6554 33.4092 32.3468C33.2548 32.1925 33.1076 32.0382 32.9605 31.8839C32.8134 31.7296 32.6753 31.5614 32.5373 31.3994C32.3992 31.2374 32.2449 31.0399 32.0977 30.8563C31.9851 30.702 31.8725 30.5477 31.7599 30.3934C31.1022 29.4658 30.5725 28.4769 30.1814 27.4463C30.0688 27.1455 29.9653 26.8446 29.8708 26.536C29.7673 26.1703 29.671 25.7954 29.5947 25.4142V25.4065C30.2868 22.0268 32.3603 18.9629 35.4503 16.7542C38.5402 14.5455 42.4484 13.3336 46.4868 13.332C50.5251 13.3303 54.4347 14.539 57.5272 16.7451C60.6196 18.9513 62.6967 22.0135 63.3926 25.3926Z" fill="#E29F96"/>
<path d="M63.3926 25.3926C63.2585 26.0785 63.0654 26.7551 62.815 27.417C62.6333 27.8923 62.4263 28.3551 62.1938 28.8057C62.1066 28.9816 62.003 29.1575 61.9086 29.3257C61.8141 29.4939 61.7015 29.6852 61.5798 29.8688C61.3564 30.2206 61.113 30.5647 60.8532 30.9026C60.2045 31.7431 59.4552 32.5244 58.6173 33.234C57.0262 34.5884 55.1364 35.6628 53.0559 36.396C50.9754 37.1291 48.7451 37.5065 46.4927 37.5065C44.2403 37.5065 42.0101 37.1291 39.9296 36.396C37.8491 35.6628 35.9592 34.5884 34.3682 33.234C34.0304 32.9486 33.7125 32.6554 33.4092 32.3468C33.2548 32.1925 33.1076 32.0382 32.9605 31.8839C32.8134 31.7296 32.6753 31.5614 32.5373 31.3994C32.3992 31.2374 32.2449 31.0399 32.0977 30.8563C31.9851 30.702 31.8725 30.5477 31.7599 30.3934C31.1022 29.4658 30.5725 28.4769 30.1814 27.4463C30.0688 27.1455 29.9653 26.8446 29.8708 26.536C29.7673 26.1703 29.671 25.7954 29.5947 25.4142V25.4065C30.2868 22.0268 32.3603 18.9629 35.4503 16.7542C38.5402 14.5455 42.4484 13.3336 46.4868 13.332C50.5251 13.3303 54.4347 14.539 57.5272 16.7451C60.6196 18.9513 62.6967 22.0135 63.3926 25.3926Z" fill="#F1D2AD"/>
<path d="M57.6618 37.3398C58.2322 37.3985 58.7934 37.4648 59.3547 37.5373C59.1204 37.7642 58.8788 37.9925 58.6281 38.2054C57.0369 39.5597 55.1468 40.634 53.0662 41.367C50.9856 42.1001 48.7552 42.4774 46.5027 42.4774C44.2503 42.4774 42.0199 42.1001 39.9393 41.367C37.8586 40.634 35.9686 39.5597 34.3773 38.2054C34.1194 37.9925 33.8778 37.7642 33.6507 37.5373C34.212 37.4648 34.7824 37.3985 35.3527 37.3398C38.4572 39.6104 42.4179 40.8593 46.5145 40.8593C50.6112 40.8593 54.5718 39.6104 57.6763 37.3398H57.6618Z" fill="#F1D2AD"/>
<path d="M75.6987 21.921C75.6992 22.439 75.5795 22.9521 75.3465 23.4308C75.1136 23.9095 74.7718 24.3446 74.3408 24.7111C73.9099 25.0776 73.3981 25.3685 72.8348 25.5669C72.2715 25.7654 71.6677 25.8677 71.0578 25.8679V27.1408H64.9837V16.2536H65.9937C65.0842 12.4313 62.6462 8.99399 59.0931 6.52475C55.54 4.05551 51.0907 2.70646 46.5 2.70646C41.9093 2.70646 37.46 4.05551 33.9069 6.52475C30.3538 8.99399 27.9158 12.4313 27.0063 16.2536H28.0162V27.1408H26.6104V30.3224H42.1188V33.089H23.3535V27.1408H21.9422V25.8679C20.7265 25.8475 19.5688 25.4229 18.7175 24.6854C17.8663 23.9478 17.3895 22.9561 17.3895 21.9233C17.3895 20.8904 17.8663 19.8987 18.7175 19.1612C19.5688 18.4237 20.7265 17.9991 21.9422 17.9787V16.2536H23.6896C25.5677 6.99892 35.0839 -0.0617065 46.5 -0.0617065C57.9161 -0.0617065 67.4323 6.99892 69.3104 16.2536H71.0578V17.9787C72.2887 17.9787 73.4691 18.394 74.3394 19.1334C75.2098 19.8727 75.6987 20.8754 75.6987 21.921Z" fill="#2C0648"/>
<path d="M46.5 31.7049C46.5 32.0732 46.3278 32.4265 46.0212 32.6869C45.7146 32.9473 45.2988 33.0936 44.8652 33.0936H42.1188V30.3224H44.8652C45.2976 30.3224 45.7123 30.4679 46.0186 30.727C46.325 30.9861 46.4981 31.3377 46.5 31.7049Z" fill="white"/>
</g>
<defs>
<clipPath id="clip0_198_86">
<rect width="93" height="79" fill="white"/>
</clipPath>
</defs>
</svg>
