<svg width="86" height="86" viewBox="0 0 86 86" fill="none" xmlns="http://www.w3.org/2000/svg">
<g clip-path="url(#clip0_198_97)">
<path d="M77.993 30.884C75.301 30.884 73.115 33.069 73.115 35.752C73.115 38.437 75.301 40.619 77.993 40.619C80.676 40.619 82.86 38.436 82.86 35.752C82.86 33.069 80.675 30.884 77.993 30.884ZM8.005 30.884C5.313 30.884 3.127 33.069 3.127 35.752C3.127 38.437 5.313 40.619 8.005 40.619C10.69 40.619 12.875 38.436 12.875 35.752C12.875 33.069 10.69 30.884 8.005 30.884ZM63.504 22.03C59.507 22.03 56.265 25.28 56.265 29.28C56.265 33.272 59.507 36.516 63.504 36.516C67.502 36.516 70.754 33.272 70.754 29.28C70.754 25.284 67.502 22.03 63.504 22.03ZM85.988 66.088H77.734V50.896C77.734 48.286 76.967 45.863 75.735 43.75C76.461 43.538 77.206 43.387 77.993 43.387C82.394 43.387 85.988 46.981 85.988 51.393V66.088ZM22.483 22.03C18.483 22.03 15.233 25.28 15.233 29.28C15.233 33.272 18.483 36.516 22.483 36.516C26.47 36.516 29.72 33.272 29.72 29.28C29.72 25.284 26.471 22.03 22.483 22.03ZM8.005 43.387C8.792 43.387 9.527 43.537 10.255 43.75C9.01 45.863 8.256 48.286 8.256 50.896V66.088H0V51.393C0 46.98 3.596 43.387 8.005 43.387ZM42.986 7.55499C37.086 7.55499 32.276 12.36 32.276 18.266C32.276 24.171 37.081 28.982 42.986 28.982C48.892 28.982 53.703 24.171 53.703 18.266C53.708 12.359 48.892 7.55499 42.986 7.55499ZM75.083 71.742H62.438V48.627C62.438 45.448 61.599 42.491 60.243 39.84C61.278 39.534 62.366 39.317 63.505 39.317C69.885 39.317 75.083 44.505 75.083 50.896V71.742ZM23.537 48.627V71.742H10.908V50.896C10.908 44.511 16.099 39.317 22.489 39.317C23.628 39.317 24.705 39.534 25.738 39.84C24.381 42.491 23.537 45.448 23.537 48.627ZM26.188 78.433H59.786V48.627C59.786 39.363 52.247 31.829 42.985 31.829C33.716 31.829 26.188 39.363 26.188 48.627V78.433Z" fill="#2C0648"/>
</g>
<defs>
<clipPath id="clip0_198_97">
<rect width="85.988" height="85.987" fill="white"/>
</clipPath>
</defs>
</svg>
