<svg width="86" height="86" viewBox="0 0 86 86" fill="none" xmlns="http://www.w3.org/2000/svg">
<path d="M71.2 51.2C74.1 48.8 76 45.1 76 41C76 34.1 70.4 28 64 28C57.6 28 52 34.1 52 41C52 45.1 53.9 48.8 56.8 51.2C55.5 51.7 54.3 52.2 53.1 52.9C49.3 48.4 44.3 44.9 38.5 43.2C42.9 40.1 46 34.8 46 29C46 19.9 38.5 12 30 12C21.5 12 14 19.9 14 29C14 34.8 17.1 40.1 21.5 43.2C9.1 46.9 0 58.4 0 72C0 73.1 0.9 74 2 74H84C85.1 74 86 73.1 86 72C86 62.4 79.8 54.2 71.2 51.2ZM56 41C56 36.8 59.5 32 64 32C68.5 32 72 36.8 72 41C72 45.2 68.5 50 64 50C59.5 50 56 45.2 56 41ZM18 29C18 22.9 23.1 16 30 16C36.9 16 42 22.9 42 29C42 35.1 36.9 42 30 42C23.1 42 18 35.1 18 29ZM4.1 70C5.1 56.6 16.4 46 30 46C43.7 46 54.9 56.6 55.9 70H4.1ZM59.9 70C59.6 65 58 60.2 55.4 56.2C58 54.8 60.9 54 64 54C73.3 54 80.9 61 81.9 70H59.9Z" fill="#2C0648"/>
</svg>
